<mxfile host="app.diagrams.net" modified="2022-01-24T05:00:55.329Z" agent="5.0 (Windows NT 10.0; Win64; x64) AppleWebKit/537.36 (KHTML, like Gecko) Chrome/90.0.4430.95 Safari/537.36" etag="OJ_KzA0iCXMVD6jEYPNP" version="15.1.1" type="github">
  <diagram id="bCmKNj5f7RHXgJ8beAIc" name="Page-1">
    <mxGraphModel dx="3235" dy="2016" grid="1" gridSize="10" guides="1" tooltips="1" connect="1" arrows="1" fold="1" page="1" pageScale="1" pageWidth="850" pageHeight="1100" math="0" shadow="0">
      <root>
        <mxCell id="0" />
        <mxCell id="1" parent="0" />
        <mxCell id="VxFZvD04OOv--FYoLjof-6" value="" style="group;dashed=1;" vertex="1" connectable="0" parent="1">
          <mxGeometry x="-440" y="-210" width="2530" height="658.75" as="geometry" />
        </mxCell>
        <mxCell id="VxFZvD04OOv--FYoLjof-1" value="The Goal: Submitting a question to the Ed Discussion form and receiving an answer" style="swimlane;childLayout=stackLayout;resizeParent=1;resizeParentMax=0;horizontal=0;startSize=20;horizontalStack=0;" vertex="1" parent="VxFZvD04OOv--FYoLjof-6">
          <mxGeometry y="20" width="2240" height="470" as="geometry" />
        </mxCell>
        <mxCell id="VxFZvD04OOv--FYoLjof-47" style="edgeStyle=orthogonalEdgeStyle;rounded=0;orthogonalLoop=1;jettySize=auto;html=1;exitX=0.5;exitY=1;exitDx=0;exitDy=0;entryX=0.5;entryY=0;entryDx=0;entryDy=0;" edge="1" parent="VxFZvD04OOv--FYoLjof-1" source="VxFZvD04OOv--FYoLjof-18" target="VxFZvD04OOv--FYoLjof-19">
          <mxGeometry relative="1" as="geometry" />
        </mxCell>
        <mxCell id="VxFZvD04OOv--FYoLjof-48" style="edgeStyle=orthogonalEdgeStyle;rounded=0;orthogonalLoop=1;jettySize=auto;html=1;exitX=1;exitY=0.5;exitDx=0;exitDy=0;entryX=0;entryY=0.5;entryDx=0;entryDy=0;" edge="1" parent="VxFZvD04OOv--FYoLjof-1" source="VxFZvD04OOv--FYoLjof-19" target="VxFZvD04OOv--FYoLjof-20">
          <mxGeometry relative="1" as="geometry" />
        </mxCell>
        <mxCell id="VxFZvD04OOv--FYoLjof-50" style="edgeStyle=orthogonalEdgeStyle;rounded=0;orthogonalLoop=1;jettySize=auto;html=1;exitX=0.5;exitY=1;exitDx=0;exitDy=0;entryX=0.5;entryY=0;entryDx=0;entryDy=0;" edge="1" parent="VxFZvD04OOv--FYoLjof-1" source="VxFZvD04OOv--FYoLjof-21" target="VxFZvD04OOv--FYoLjof-22">
          <mxGeometry relative="1" as="geometry" />
        </mxCell>
        <mxCell id="VxFZvD04OOv--FYoLjof-51" style="edgeStyle=orthogonalEdgeStyle;rounded=0;orthogonalLoop=1;jettySize=auto;html=1;exitX=1;exitY=0.5;exitDx=0;exitDy=0;entryX=0;entryY=0.5;entryDx=0;entryDy=0;" edge="1" parent="VxFZvD04OOv--FYoLjof-1" source="VxFZvD04OOv--FYoLjof-22" target="VxFZvD04OOv--FYoLjof-24">
          <mxGeometry relative="1" as="geometry" />
        </mxCell>
        <mxCell id="VxFZvD04OOv--FYoLjof-55" style="edgeStyle=orthogonalEdgeStyle;rounded=0;orthogonalLoop=1;jettySize=auto;html=1;exitX=0.5;exitY=0;exitDx=0;exitDy=0;entryX=0;entryY=0.5;entryDx=0;entryDy=0;" edge="1" parent="VxFZvD04OOv--FYoLjof-1" source="VxFZvD04OOv--FYoLjof-23" target="VxFZvD04OOv--FYoLjof-54">
          <mxGeometry relative="1" as="geometry" />
        </mxCell>
        <mxCell id="VxFZvD04OOv--FYoLjof-62" value="Yes" style="edgeLabel;html=1;align=center;verticalAlign=middle;resizable=0;points=[];" vertex="1" connectable="0" parent="VxFZvD04OOv--FYoLjof-55">
          <mxGeometry x="-0.5353" y="2" relative="1" as="geometry">
            <mxPoint y="-39" as="offset" />
          </mxGeometry>
        </mxCell>
        <mxCell id="VxFZvD04OOv--FYoLjof-75" style="edgeStyle=orthogonalEdgeStyle;rounded=0;orthogonalLoop=1;jettySize=auto;html=1;exitX=0.5;exitY=1;exitDx=0;exitDy=0;entryX=0.5;entryY=0;entryDx=0;entryDy=0;" edge="1" parent="VxFZvD04OOv--FYoLjof-1" source="VxFZvD04OOv--FYoLjof-69" target="VxFZvD04OOv--FYoLjof-70">
          <mxGeometry relative="1" as="geometry" />
        </mxCell>
        <mxCell id="VxFZvD04OOv--FYoLjof-76" style="edgeStyle=orthogonalEdgeStyle;rounded=0;orthogonalLoop=1;jettySize=auto;html=1;exitX=1;exitY=0.5;exitDx=0;exitDy=0;entryX=0;entryY=0.417;entryDx=0;entryDy=0;entryPerimeter=0;" edge="1" parent="VxFZvD04OOv--FYoLjof-1" source="VxFZvD04OOv--FYoLjof-70" target="VxFZvD04OOv--FYoLjof-71">
          <mxGeometry relative="1" as="geometry" />
        </mxCell>
        <mxCell id="VxFZvD04OOv--FYoLjof-2" value="User" style="swimlane;startSize=20;horizontal=0;" vertex="1" parent="VxFZvD04OOv--FYoLjof-1">
          <mxGeometry x="20" width="2220" height="290" as="geometry" />
        </mxCell>
        <mxCell id="VxFZvD04OOv--FYoLjof-97" value="" style="rounded=0;whiteSpace=wrap;html=1;strokeColor=#6c8ebf;fillColor=#dae8fc;opacity=60;" vertex="1" parent="VxFZvD04OOv--FYoLjof-2">
          <mxGeometry x="20" width="1080" height="290" as="geometry" />
        </mxCell>
        <mxCell id="VxFZvD04OOv--FYoLjof-98" value="" style="rounded=0;whiteSpace=wrap;html=1;fillColor=#ffe6cc;strokeColor=#d79b00;opacity=60;" vertex="1" parent="VxFZvD04OOv--FYoLjof-2">
          <mxGeometry x="1100" width="1120" height="290" as="geometry" />
        </mxCell>
        <mxCell id="VxFZvD04OOv--FYoLjof-40" value="" style="edgeStyle=orthogonalEdgeStyle;rounded=0;orthogonalLoop=1;jettySize=auto;html=1;" edge="1" parent="VxFZvD04OOv--FYoLjof-2" source="VxFZvD04OOv--FYoLjof-7" target="VxFZvD04OOv--FYoLjof-9">
          <mxGeometry relative="1" as="geometry" />
        </mxCell>
        <mxCell id="VxFZvD04OOv--FYoLjof-7" value="Start" style="ellipse;whiteSpace=wrap;html=1;aspect=fixed;" vertex="1" parent="VxFZvD04OOv--FYoLjof-2">
          <mxGeometry x="30" y="145" width="50" height="50" as="geometry" />
        </mxCell>
        <mxCell id="VxFZvD04OOv--FYoLjof-41" value="" style="edgeStyle=orthogonalEdgeStyle;rounded=0;orthogonalLoop=1;jettySize=auto;html=1;entryX=0;entryY=0.5;entryDx=0;entryDy=0;" edge="1" parent="VxFZvD04OOv--FYoLjof-2" source="VxFZvD04OOv--FYoLjof-9" target="VxFZvD04OOv--FYoLjof-11">
          <mxGeometry relative="1" as="geometry">
            <Array as="points">
              <mxPoint x="240" y="170" />
              <mxPoint x="240" y="90" />
            </Array>
          </mxGeometry>
        </mxCell>
        <mxCell id="VxFZvD04OOv--FYoLjof-80" style="edgeStyle=orthogonalEdgeStyle;rounded=0;orthogonalLoop=1;jettySize=auto;html=1;exitX=1;exitY=0.5;exitDx=0;exitDy=0;entryX=0;entryY=0.5;entryDx=0;entryDy=0;" edge="1" parent="VxFZvD04OOv--FYoLjof-2" source="VxFZvD04OOv--FYoLjof-9" target="VxFZvD04OOv--FYoLjof-10">
          <mxGeometry relative="1" as="geometry" />
        </mxCell>
        <mxCell id="VxFZvD04OOv--FYoLjof-9" value="&lt;span&gt;Plan:&lt;/span&gt;&lt;br&gt;&lt;span&gt;What are the alternatives?&lt;/span&gt;" style="rhombus;whiteSpace=wrap;html=1;" vertex="1" parent="VxFZvD04OOv--FYoLjof-2">
          <mxGeometry x="100" y="110" width="120" height="120" as="geometry" />
        </mxCell>
        <mxCell id="VxFZvD04OOv--FYoLjof-46" value="" style="edgeStyle=orthogonalEdgeStyle;rounded=0;orthogonalLoop=1;jettySize=auto;html=1;dashed=1;" edge="1" parent="VxFZvD04OOv--FYoLjof-2" source="VxFZvD04OOv--FYoLjof-10" target="VxFZvD04OOv--FYoLjof-18">
          <mxGeometry relative="1" as="geometry" />
        </mxCell>
        <mxCell id="VxFZvD04OOv--FYoLjof-10" value="Use the forum to create a thread" style="rounded=0;whiteSpace=wrap;html=1;" vertex="1" parent="VxFZvD04OOv--FYoLjof-2">
          <mxGeometry x="260" y="140" width="120" height="60" as="geometry" />
        </mxCell>
        <mxCell id="VxFZvD04OOv--FYoLjof-60" style="edgeStyle=orthogonalEdgeStyle;rounded=0;orthogonalLoop=1;jettySize=auto;html=1;exitX=1;exitY=0.5;exitDx=0;exitDy=0;entryX=0;entryY=0.5;entryDx=0;entryDy=0;fillColor=#f8cecc;strokeColor=#b85450;dashed=1;" edge="1" parent="VxFZvD04OOv--FYoLjof-2" source="VxFZvD04OOv--FYoLjof-11" target="VxFZvD04OOv--FYoLjof-14">
          <mxGeometry relative="1" as="geometry" />
        </mxCell>
        <mxCell id="VxFZvD04OOv--FYoLjof-11" value="Use another tool" style="rounded=0;whiteSpace=wrap;html=1;" vertex="1" parent="VxFZvD04OOv--FYoLjof-2">
          <mxGeometry x="260" y="60" width="120" height="60" as="geometry" />
        </mxCell>
        <mxCell id="VxFZvD04OOv--FYoLjof-14" value="End-Failed" style="ellipse;whiteSpace=wrap;html=1;aspect=fixed;fillColor=#f8cecc;strokeColor=#b85450;" vertex="1" parent="VxFZvD04OOv--FYoLjof-2">
          <mxGeometry x="410" y="65" width="50" height="50" as="geometry" />
        </mxCell>
        <mxCell id="VxFZvD04OOv--FYoLjof-17" value="Specify: What can I do?" style="text;html=1;strokeColor=none;fillColor=none;align=center;verticalAlign=middle;whiteSpace=wrap;rounded=0;" vertex="1" parent="VxFZvD04OOv--FYoLjof-2">
          <mxGeometry x="260" y="10" width="130" height="20" as="geometry" />
        </mxCell>
        <mxCell id="VxFZvD04OOv--FYoLjof-18" value="User clicks &quot;New Thread&quot;" style="rounded=0;whiteSpace=wrap;html=1;" vertex="1" parent="VxFZvD04OOv--FYoLjof-2">
          <mxGeometry x="490" y="140" width="120" height="60" as="geometry" />
        </mxCell>
        <mxCell id="VxFZvD04OOv--FYoLjof-49" style="edgeStyle=orthogonalEdgeStyle;rounded=0;orthogonalLoop=1;jettySize=auto;html=1;exitX=1;exitY=0.5;exitDx=0;exitDy=0;entryX=0;entryY=0.5;entryDx=0;entryDy=0;" edge="1" parent="VxFZvD04OOv--FYoLjof-2" source="VxFZvD04OOv--FYoLjof-20" target="VxFZvD04OOv--FYoLjof-21">
          <mxGeometry relative="1" as="geometry" />
        </mxCell>
        <mxCell id="VxFZvD04OOv--FYoLjof-20" value="User enters information" style="rounded=0;whiteSpace=wrap;html=1;" vertex="1" parent="VxFZvD04OOv--FYoLjof-2">
          <mxGeometry x="650" y="140" width="120" height="60" as="geometry" />
        </mxCell>
        <mxCell id="VxFZvD04OOv--FYoLjof-21" value="User selects &quot;Post&quot;" style="rounded=0;whiteSpace=wrap;html=1;" vertex="1" parent="VxFZvD04OOv--FYoLjof-2">
          <mxGeometry x="800" y="140" width="120" height="60" as="geometry" />
        </mxCell>
        <mxCell id="VxFZvD04OOv--FYoLjof-24" value="User validates that the &lt;i&gt;thread &lt;/i&gt;is visible on the forum board" style="rounded=0;whiteSpace=wrap;html=1;" vertex="1" parent="VxFZvD04OOv--FYoLjof-2">
          <mxGeometry x="970" y="140" width="120" height="60" as="geometry" />
        </mxCell>
        <mxCell id="VxFZvD04OOv--FYoLjof-64" value="" style="edgeStyle=orthogonalEdgeStyle;rounded=0;orthogonalLoop=1;jettySize=auto;html=1;" edge="1" parent="VxFZvD04OOv--FYoLjof-2" source="VxFZvD04OOv--FYoLjof-54" target="VxFZvD04OOv--FYoLjof-56">
          <mxGeometry relative="1" as="geometry" />
        </mxCell>
        <mxCell id="VxFZvD04OOv--FYoLjof-54" value="User receives a notification that an answer has been submitted" style="rounded=0;whiteSpace=wrap;html=1;" vertex="1" parent="VxFZvD04OOv--FYoLjof-2">
          <mxGeometry x="1179.68" y="140" width="120" height="60" as="geometry" />
        </mxCell>
        <mxCell id="VxFZvD04OOv--FYoLjof-65" value="" style="edgeStyle=orthogonalEdgeStyle;rounded=0;orthogonalLoop=1;jettySize=auto;html=1;" edge="1" parent="VxFZvD04OOv--FYoLjof-2" source="VxFZvD04OOv--FYoLjof-56" target="VxFZvD04OOv--FYoLjof-57">
          <mxGeometry relative="1" as="geometry" />
        </mxCell>
        <mxCell id="VxFZvD04OOv--FYoLjof-56" value="User reviews the answer submitted" style="rounded=0;whiteSpace=wrap;html=1;" vertex="1" parent="VxFZvD04OOv--FYoLjof-2">
          <mxGeometry x="1330" y="140" width="120" height="60" as="geometry" />
        </mxCell>
        <mxCell id="VxFZvD04OOv--FYoLjof-66" value="" style="edgeStyle=orthogonalEdgeStyle;rounded=0;orthogonalLoop=1;jettySize=auto;html=1;" edge="1" parent="VxFZvD04OOv--FYoLjof-2" source="VxFZvD04OOv--FYoLjof-57" target="VxFZvD04OOv--FYoLjof-59">
          <mxGeometry relative="1" as="geometry" />
        </mxCell>
        <mxCell id="VxFZvD04OOv--FYoLjof-67" style="edgeStyle=orthogonalEdgeStyle;rounded=0;orthogonalLoop=1;jettySize=auto;html=1;exitX=1;exitY=0.5;exitDx=0;exitDy=0;entryX=0;entryY=0.5;entryDx=0;entryDy=0;" edge="1" parent="VxFZvD04OOv--FYoLjof-2" source="VxFZvD04OOv--FYoLjof-57" target="VxFZvD04OOv--FYoLjof-58">
          <mxGeometry relative="1" as="geometry" />
        </mxCell>
        <mxCell id="VxFZvD04OOv--FYoLjof-57" value="Compare:&lt;br&gt;Is this okay?" style="rhombus;whiteSpace=wrap;html=1;" vertex="1" parent="VxFZvD04OOv--FYoLjof-2">
          <mxGeometry x="1490" y="118.81" width="100" height="100" as="geometry" />
        </mxCell>
        <mxCell id="VxFZvD04OOv--FYoLjof-74" value="" style="edgeStyle=orthogonalEdgeStyle;rounded=0;orthogonalLoop=1;jettySize=auto;html=1;" edge="1" parent="VxFZvD04OOv--FYoLjof-2" source="VxFZvD04OOv--FYoLjof-58" target="VxFZvD04OOv--FYoLjof-69">
          <mxGeometry relative="1" as="geometry" />
        </mxCell>
        <mxCell id="VxFZvD04OOv--FYoLjof-58" value="Yes: The user accepts the answer" style="rounded=0;whiteSpace=wrap;html=1;" vertex="1" parent="VxFZvD04OOv--FYoLjof-2">
          <mxGeometry x="1650" y="93.5" width="120" height="60" as="geometry" />
        </mxCell>
        <mxCell id="VxFZvD04OOv--FYoLjof-82" style="edgeStyle=orthogonalEdgeStyle;rounded=0;orthogonalLoop=1;jettySize=auto;html=1;exitX=1;exitY=0.5;exitDx=0;exitDy=0;entryX=0;entryY=0.5;entryDx=0;entryDy=0;" edge="1" parent="VxFZvD04OOv--FYoLjof-2" source="VxFZvD04OOv--FYoLjof-59" target="VxFZvD04OOv--FYoLjof-63">
          <mxGeometry relative="1" as="geometry" />
        </mxCell>
        <mxCell id="VxFZvD04OOv--FYoLjof-59" value="No: The User does not accept the answer" style="rounded=0;whiteSpace=wrap;html=1;" vertex="1" parent="VxFZvD04OOv--FYoLjof-2">
          <mxGeometry x="1650" y="203.5" width="120" height="60" as="geometry" />
        </mxCell>
        <mxCell id="VxFZvD04OOv--FYoLjof-38" value="" style="shape=curlyBracket;whiteSpace=wrap;html=1;rounded=1;rotation=90;" vertex="1" parent="VxFZvD04OOv--FYoLjof-2">
          <mxGeometry x="778.12" y="-270.63" width="20" height="621.25" as="geometry" />
        </mxCell>
        <mxCell id="VxFZvD04OOv--FYoLjof-39" value="Preform: How do I do it?" style="text;html=1;strokeColor=none;fillColor=none;align=center;verticalAlign=middle;whiteSpace=wrap;rounded=0;" vertex="1" parent="VxFZvD04OOv--FYoLjof-2">
          <mxGeometry x="640" y="10" width="290" height="20" as="geometry" />
        </mxCell>
        <mxCell id="VxFZvD04OOv--FYoLjof-69" value="User clicks the checkmark" style="rounded=0;whiteSpace=wrap;html=1;" vertex="1" parent="VxFZvD04OOv--FYoLjof-2">
          <mxGeometry x="1800" y="93.5" width="120" height="60" as="geometry" />
        </mxCell>
        <mxCell id="VxFZvD04OOv--FYoLjof-71" value="User validates the green checkmark" style="rounded=0;whiteSpace=wrap;html=1;" vertex="1" parent="VxFZvD04OOv--FYoLjof-2">
          <mxGeometry x="1980" y="93.5" width="120" height="60" as="geometry" />
        </mxCell>
        <mxCell id="VxFZvD04OOv--FYoLjof-15" value="End-Passed" style="ellipse;whiteSpace=wrap;html=1;aspect=fixed;fillColor=#d5e8d4;strokeColor=#82b366;" vertex="1" parent="VxFZvD04OOv--FYoLjof-2">
          <mxGeometry x="2160" y="98.5" width="50" height="50" as="geometry" />
        </mxCell>
        <mxCell id="VxFZvD04OOv--FYoLjof-72" value="" style="shape=curlyBracket;whiteSpace=wrap;html=1;rounded=1;rotation=90;" vertex="1" parent="VxFZvD04OOv--FYoLjof-2">
          <mxGeometry x="1274.53" y="-135.16" width="20" height="350.31" as="geometry" />
        </mxCell>
        <mxCell id="VxFZvD04OOv--FYoLjof-73" value="Perceive: What happened?" style="text;html=1;strokeColor=none;fillColor=none;align=center;verticalAlign=middle;whiteSpace=wrap;rounded=0;" vertex="1" parent="VxFZvD04OOv--FYoLjof-2">
          <mxGeometry x="1160" y="10" width="290" height="20" as="geometry" />
        </mxCell>
        <mxCell id="VxFZvD04OOv--FYoLjof-77" style="edgeStyle=orthogonalEdgeStyle;rounded=0;orthogonalLoop=1;jettySize=auto;html=1;exitX=1;exitY=0.5;exitDx=0;exitDy=0;entryX=0;entryY=0.5;entryDx=0;entryDy=0;" edge="1" parent="VxFZvD04OOv--FYoLjof-2" source="VxFZvD04OOv--FYoLjof-71" target="VxFZvD04OOv--FYoLjof-15">
          <mxGeometry relative="1" as="geometry">
            <mxPoint x="2149.9999999999995" y="123.5689655172414" as="targetPoint" />
          </mxGeometry>
        </mxCell>
        <mxCell id="VxFZvD04OOv--FYoLjof-63" value="1" style="ellipse;whiteSpace=wrap;html=1;aspect=fixed;" vertex="1" parent="VxFZvD04OOv--FYoLjof-2">
          <mxGeometry x="1800" y="218.81" width="30" height="30" as="geometry" />
        </mxCell>
        <mxCell id="VxFZvD04OOv--FYoLjof-78" value="1" style="ellipse;whiteSpace=wrap;html=1;aspect=fixed;" vertex="1" parent="VxFZvD04OOv--FYoLjof-2">
          <mxGeometry x="1030" y="248.81" width="30" height="30" as="geometry" />
        </mxCell>
        <mxCell id="VxFZvD04OOv--FYoLjof-91" value="Compare: Is this okay?" style="text;html=1;strokeColor=none;fillColor=none;align=center;verticalAlign=middle;whiteSpace=wrap;rounded=0;" vertex="1" parent="VxFZvD04OOv--FYoLjof-2">
          <mxGeometry x="1690" y="10" width="290" height="20" as="geometry" />
        </mxCell>
        <mxCell id="VxFZvD04OOv--FYoLjof-3" value="ed" style="swimlane;startSize=20;horizontal=0;" vertex="1" parent="VxFZvD04OOv--FYoLjof-1">
          <mxGeometry x="20" y="290" width="2220" height="180" as="geometry" />
        </mxCell>
        <mxCell id="VxFZvD04OOv--FYoLjof-100" value="" style="rounded=0;whiteSpace=wrap;html=1;fillColor=#ffe6cc;strokeColor=#d79b00;opacity=60;" vertex="1" parent="VxFZvD04OOv--FYoLjof-3">
          <mxGeometry x="1100" width="1120" height="180" as="geometry" />
        </mxCell>
        <mxCell id="VxFZvD04OOv--FYoLjof-99" value="" style="rounded=0;whiteSpace=wrap;html=1;fillColor=#dae8fc;strokeColor=#6c8ebf;opacity=60;" vertex="1" parent="VxFZvD04OOv--FYoLjof-3">
          <mxGeometry x="20" width="1080" height="180" as="geometry" />
        </mxCell>
        <mxCell id="VxFZvD04OOv--FYoLjof-19" value="ed Shows the &quot;New Question&quot; screen" style="rounded=0;whiteSpace=wrap;html=1;" vertex="1" parent="VxFZvD04OOv--FYoLjof-3">
          <mxGeometry x="490" y="45" width="120" height="60" as="geometry" />
        </mxCell>
        <mxCell id="VxFZvD04OOv--FYoLjof-52" style="edgeStyle=orthogonalEdgeStyle;rounded=0;orthogonalLoop=1;jettySize=auto;html=1;exitX=1;exitY=0.5;exitDx=0;exitDy=0;entryX=0;entryY=0.5;entryDx=0;entryDy=0;" edge="1" parent="VxFZvD04OOv--FYoLjof-3" source="VxFZvD04OOv--FYoLjof-22" target="VxFZvD04OOv--FYoLjof-23">
          <mxGeometry relative="1" as="geometry" />
        </mxCell>
        <mxCell id="VxFZvD04OOv--FYoLjof-22" value="System &lt;i&gt;posts &lt;/i&gt;the &lt;i&gt;thread &lt;/i&gt;onto the forum board" style="rounded=0;whiteSpace=wrap;html=1;" vertex="1" parent="VxFZvD04OOv--FYoLjof-3">
          <mxGeometry x="800" y="45" width="120" height="60" as="geometry" />
        </mxCell>
        <mxCell id="VxFZvD04OOv--FYoLjof-23" value="Has another &lt;br&gt;post been &lt;br&gt;submitted as an answer?" style="rhombus;whiteSpace=wrap;html=1;" vertex="1" parent="VxFZvD04OOv--FYoLjof-3">
          <mxGeometry x="1100" y="10" width="120" height="130" as="geometry" />
        </mxCell>
        <mxCell id="VxFZvD04OOv--FYoLjof-53" style="edgeStyle=orthogonalEdgeStyle;rounded=0;orthogonalLoop=1;jettySize=auto;html=1;exitX=1;exitY=0.5;exitDx=0;exitDy=0;" edge="1" parent="VxFZvD04OOv--FYoLjof-3" source="VxFZvD04OOv--FYoLjof-23" target="VxFZvD04OOv--FYoLjof-23">
          <mxGeometry relative="1" as="geometry">
            <mxPoint x="1339.9999999999995" y="75.0689655172414" as="targetPoint" />
            <Array as="points">
              <mxPoint x="1240" y="75" />
              <mxPoint x="1240" y="160" />
              <mxPoint x="1160" y="160" />
            </Array>
          </mxGeometry>
        </mxCell>
        <mxCell id="VxFZvD04OOv--FYoLjof-61" value="No" style="edgeLabel;html=1;align=center;verticalAlign=middle;resizable=0;points=[];" vertex="1" connectable="0" parent="VxFZvD04OOv--FYoLjof-53">
          <mxGeometry x="-0.5645" relative="1" as="geometry">
            <mxPoint y="20" as="offset" />
          </mxGeometry>
        </mxCell>
        <mxCell id="VxFZvD04OOv--FYoLjof-70" value="ed changes the color of the checkmark to green" style="rounded=0;whiteSpace=wrap;html=1;" vertex="1" parent="VxFZvD04OOv--FYoLjof-3">
          <mxGeometry x="1800" y="45" width="120" height="60" as="geometry" />
        </mxCell>
        <mxCell id="VxFZvD04OOv--FYoLjof-81" style="edgeStyle=orthogonalEdgeStyle;rounded=0;orthogonalLoop=1;jettySize=auto;html=1;exitX=0.5;exitY=1;exitDx=0;exitDy=0;entryX=0;entryY=0.5;entryDx=0;entryDy=0;" edge="1" parent="VxFZvD04OOv--FYoLjof-1" source="VxFZvD04OOv--FYoLjof-78" target="VxFZvD04OOv--FYoLjof-23">
          <mxGeometry relative="1" as="geometry" />
        </mxCell>
        <mxCell id="VxFZvD04OOv--FYoLjof-16" value="" style="shape=curlyBracket;whiteSpace=wrap;html=1;rounded=1;rotation=90;" vertex="1" parent="1">
          <mxGeometry x="-107.5" y="-220" width="20" height="145" as="geometry" />
        </mxCell>
        <mxCell id="VxFZvD04OOv--FYoLjof-90" value="" style="shape=curlyBracket;whiteSpace=wrap;html=1;rounded=1;rotation=90;" vertex="1" parent="1">
          <mxGeometry x="1414.22" y="-518.59" width="20" height="737.81" as="geometry" />
        </mxCell>
      </root>
    </mxGraphModel>
  </diagram>
</mxfile>
